# xmcd
# 
# Track frame offsets:
#     150
#     18140
#     41095
#     59928
#     77400
#     92441
#     113904
#     135598
#     151973
#     170488
# 
# Disc length: 2550
# 
# Revision: 0
# Processed by: cddbd v1.5.2PL0 Copyright (c) Steve Scherf et al.
# Submitted via: fre:ac v1.0.31
# 
DISCID=7709f40a
DTITLE=Whitey Morgan and the 78s - Hard Times and White Lines
DYEAR=2018
DGENRE=Country
TTITLE0=Honky Tonk Hell
TTITLE1=Bourbon and the Blues
TTITLE2=Around Here
TTITLE3=What am I Supposed to Do
TTITLE4=Just Got Paid
TTITLE5=Hard to Get High
TTITLE6=Carryin' On
TTITLE7=Fiddler's Inn
TTITLE8=Tired of the Rain
TTITLE9=Wild and Reckless
EXTD=
EXTT0=
EXTT1=
EXTT2=
EXTT3=
EXTT4=
EXTT5=
EXTT6=
EXTT7=
EXTT8=
EXTT9=
PLAYORDER=
